<svg width="1085.8px" height="207.2px" xmlns="http://www.w3.org/2000/svg" viewBox="-292.87998046875 -28.6199951171875 1085.7599609375 207.239990234375" style="background: rgba(0, 0, 0, 0) none repeat scroll 0% 0%" preserveAspectRatio="xMidYMid"><defs><filter id="editing-extrusion" x="-100%" y="-100%" width="300%" height="300%"><feFlood result="color1" flood-color="#000000"></feFlood><feConvolveMatrix order="2,2" divisor="1" kernelMatrix="1 0 0 1" in="SourceAlpha" result="extrude"></feConvolveMatrix><feComposite in="color1" in2="extrude" result="comp-extrude" operator="in"></feComposite><feOffset dx="1" dy="1" in="comp-extrude" result="offset-extrude"></feOffset><feMerge><feMergeNode in="offset-extrude"></feMergeNode><feMergeNode in="SourceGraphic"></feMergeNode></feMerge></filter></defs><g filter="url(#editing-extrusion)"><g transform="matrix(1.3,0,0,1,-278,120.9)"><path d="M 36.7 10.6 L 36.7 -58.9 L 45.8 -58.9 L 45.8 10.6 L 36.7 10.6 Z M 72.1 10.6 L 63.8 10.6 L 63.8 -20.5 L 63.8 -20.5 Q 63.8 -27.9 63.4 -31.7 L 63.4 -31.7 L 63.4 -31.7 Q 63.3 -34.7 62.2 -38.9 L 62.2 -38.9 L 70.1 -40.7 L 70.1 -40.7 Q 71 -37.8 71.4 -35.1 L 71.4 -35.1 L 71.4 -35.1 Q 71.6 -34.1 71.9 -29.8 L 71.9 -29.8 L 72.9 -29.8 L 72.9 -29.8 Q 75.4 -34.8 79.1 -37.6 L 79.1 -37.6 L 79.1 -37.6 Q 83.1 -40.8 88.2 -40.8 L 88.2 -40.8 L 88.2 -40.8 Q 91.1 -40.8 93.9 -39.8 L 93.9 -39.8 L 93.9 -39.8 Q 96.6 -38.7 98.4 -36.8 L 98.4 -36.8 L 98.4 -36.8 Q 101.2 -34.1 102.3 -28.8 L 102.3 -28.8 L 102.9 -28.8 L 102.9 -28.8 Q 105.8 -34.4 109.7 -37.4 L 109.7 -37.4 L 109.7 -37.4 Q 113.9 -40.8 119.1 -40.8 L 119.1 -40.8 L 119.1 -40.8 Q 125.5 -40.8 128.9 -37.3 L 128.9 -37.3 L 128.9 -37.3 Q 131.8 -34.3 133 -28.3 L 133 -28.3 L 133 -28.3 Q 133.9 -23.9 133.9 -16 L 133.9 -16 L 133.9 10.6 L 125.6 10.6 L 125.6 -18.3 L 125.6 -18.3 Q 125.6 -22.1 125.1 -24.6 L 125.1 -24.6 L 125.1 -24.6 Q 124.5 -28.4 122.7 -30.6 L 122.7 -30.6 L 122.7 -30.6 Q 120.5 -33.1 116.6 -33.1 L 116.6 -33.1 L 116.6 -33.1 Q 112.2 -33.1 108.4 -28.9 L 108.4 -28.9 L 108.4 -28.9 Q 106.1 -26.3 103 -20.9 L 103 -20.9 L 103 -20.9 Q 103.1 -20.1 103.1 -18.5 L 103.1 -18.5 L 103.1 10.6 L 94.8 10.6 L 94.8 -18.3 L 94.8 -18.3 Q 94.8 -24.5 93.6 -27.7 L 93.6 -27.7 L 93.6 -27.7 Q 91.5 -33.1 85.9 -33.1 L 85.9 -33.1 L 85.9 -33.1 Q 81.5 -33.1 77.6 -28.8 L 77.6 -28.8 L 77.6 -28.8 Q 75.3 -26.2 72.1 -20.4 L 72.1 -20.4 L 72.1 10.6 Z M 150.9 -30.8 L 150.9 -30.8 L 148.8 -37.6 L 148.8 -37.6 Q 156.9 -40.8 165.8 -40.8 L 165.8 -40.8 L 165.8 -40.8 Q 173.6 -40.8 177.7 -38.2 L 177.7 -38.2 L 177.7 -38.2 Q 182.4 -35.2 182.4 -28 L 182.4 -28 L 182.4 -8.2 L 182.4 -8.2 Q 182.4 -4.3 182.5 -0.1 L 182.5 -0.1 L 182.5 -0.1 Q 182.5 2.4 182.9 5 L 182.9 5 L 182.9 5 Q 183.3 7.5 184 9.8 L 184 9.8 L 176 11.6 L 176 11.6 Q 174.9 8.3 174.6 4.3 L 174.6 4.3 L 173.7 4.2 L 173.7 4.2 Q 167.7 11.7 158.4 11.7 L 158.4 11.7 L 158.4 11.7 Q 151.6 11.7 147.5 8 L 147.5 8 L 147.5 8 Q 143.4 4.3 143.4 -2.6 L 143.4 -2.6 L 143.4 -2.6 Q 143.4 -7.6 145.7 -10.9 L 145.7 -10.9 L 145.7 -10.9 Q 147.9 -14.1 152 -16.3 L 152 -16.3 L 152 -16.3 Q 158.5 -19.9 170.1 -19.9 L 170.1 -19.9 L 170.1 -19.9 Q 171.7 -19.9 174.3 -19.8 L 174.3 -19.8 L 174.3 -27.1 L 174.3 -27.1 Q 174.3 -30.6 172.2 -32.1 L 172.2 -32.1 L 172.2 -32.1 Q 170 -33.7 165.5 -33.7 L 165.5 -33.7 L 165.5 -33.7 Q 158.9 -33.7 150.9 -30.8 Z M 174.3 -3.5 L 174.3 -3.5 L 174.3 -13.7 L 174.3 -13.7 Q 173 -13.8 170.5 -13.8 L 170.5 -13.8 L 170.5 -13.8 Q 166.2 -13.8 162.6 -13.1 L 162.6 -13.1 L 162.6 -13.1 Q 157.3 -12 154.4 -9.7 L 154.4 -9.7 L 154.4 -9.7 Q 151.5 -7.4 151.5 -3.1 L 151.5 -3.1 L 151.5 -3.1 Q 151.5 4.6 159.9 4.6 L 159.9 4.6 L 159.9 4.6 Q 164.2 4.6 168 2.3 L 168 2.3 L 168 2.3 Q 171.1 0.4 174.3 -3.5 Z M 222.5 -39.7 L 227 -39.7 L 227 -39.7 Q 229.1 -39.7 230.6 -39.7 L 230.6 -39.7 L 230.6 -39.7 Q 232.2 -39.8 233.7 -40 L 233.7 -40 L 233.7 -40 Q 235.1 -40.1 236.6 -40.5 L 236.6 -40.5 L 236.6 -40.5 Q 238.1 -40.8 240 -41.4 L 240 -41.4 L 240 -41.4 Q 240.7 -39.6 241.3 -37.9 L 241.3 -37.9 L 241.3 -37.9 Q 241.9 -36.3 242.5 -34.6 L 242.5 -34.6 L 242.5 -34.6 Q 241 -34 239.6 -33.6 L 239.6 -33.6 L 239.6 -33.6 Q 238.3 -33.3 237.1 -33.1 L 237.1 -33.1 L 237.1 -33.1 Q 235.8 -32.9 234.5 -32.8 L 234.5 -32.8 L 234.5 -32.8 Q 233.2 -32.7 231.8 -32.7 L 231.8 -32.7 L 231.8 -32.7 Q 233.1 -30.5 233.8 -27.8 L 233.8 -27.8 L 233.8 -27.8 Q 234.6 -25.1 234.6 -21.9 L 234.6 -21.9 L 234.6 -21.9 Q 234.6 -17.3 233.2 -13.8 L 233.2 -13.8 L 233.2 -13.8 Q 231.8 -10.3 229.2 -7.9 L 229.2 -7.9 L 229.2 -7.9 Q 226.5 -5.5 222.9 -4.3 L 222.9 -4.3 L 222.9 -4.3 Q 219.2 -3 214.7 -3 L 214.7 -3 L 214.7 -3 Q 212.4 -3 210.3 -3.3 L 210.3 -3.3 L 210.3 -3.3 Q 208.2 -3.6 206.3 -4.3 L 206.3 -4.3 L 206.3 -4.3 Q 205.9 -3.1 205.6 -1.9 L 205.6 -1.9 L 205.6 -1.9 Q 205.3 -0.7 205.3 0.4 L 205.3 0.4 L 205.3 0.4 Q 205.3 1.5 205.7 2.4 L 205.7 2.4 L 205.7 2.4 Q 206.1 3.3 207.1 3.8 L 207.1 3.8 L 207.1 3.8 Q 207.5 4.1 208.1 4.3 L 208.1 4.3 L 208.1 4.3 Q 208.6 4.4 209.4 4.6 L 209.4 4.6 L 209.4 4.6 Q 210.1 4.7 211.2 4.8 L 211.2 4.8 L 211.2 4.8 Q 212.2 4.8 213.7 4.8 L 213.7 4.8 L 213.7 4.8 Q 215.2 4.9 217.1 4.9 L 217.1 4.9 L 217.1 4.9 Q 219.1 4.9 221.7 4.9 L 221.7 4.9 L 221.7 4.9 Q 229.3 4.9 233.1 8 L 233.1 8 L 233.1 8 Q 237 11.2 237 17.9 L 237 17.9 L 237 17.9 Q 237 20.6 236.1 22.7 L 236.1 22.7 L 236.1 22.7 Q 235.2 24.8 233.7 26.3 L 233.7 26.3 L 233.7 26.3 Q 232.2 27.9 230.1 28.9 L 230.1 28.9 L 230.1 28.9 Q 228 30 225.6 30.6 L 225.6 30.6 L 225.6 30.6 Q 223.2 31.3 220.6 31.5 L 220.6 31.5 L 220.6 31.5 Q 217.9 31.8 215.3 31.8 L 215.3 31.8 L 215.3 31.8 Q 212.6 31.8 209.9 31.5 L 209.9 31.5 L 209.9 31.5 Q 207.3 31.2 204.7 30.8 L 204.7 30.8 L 204.7 30.8 Q 202.1 30.4 199.9 29.8 L 199.9 29.8 L 199.9 29.8 Q 197.6 29.2 195.9 28.7 L 195.9 28.7 L 195.9 28.7 Q 196.6 27.1 197.4 25.4 L 197.4 25.4 L 197.4 25.4 Q 198.3 23.8 199.2 22.3 L 199.2 22.3 L 199.2 22.3 Q 202.3 23.2 206.5 24 L 206.5 24 L 206.5 24 Q 210.7 24.8 215.8 24.8 L 215.8 24.8 L 215.8 24.8 Q 218.1 24.8 220.4 24.6 L 220.4 24.6 L 220.4 24.6 Q 222.6 24.3 224.4 23.5 L 224.4 23.5 L 224.4 23.5 Q 226.3 22.7 227.4 21.3 L 227.4 21.3 L 227.4 21.3 Q 228.5 20 228.5 17.9 L 228.5 17.9 L 228.5 17.9 Q 228.5 15.7 227.7 14.5 L 227.7 14.5 L 227.7 14.5 Q 226.9 13.2 225.5 12.7 L 225.5 12.7 L 225.5 12.7 Q 224.2 12.1 222.3 12 L 222.3 12 L 222.3 12 Q 220.5 11.9 218.5 11.9 L 218.5 11.9 L 212.1 11.9 L 212.1 11.9 Q 209.3 11.9 206.8 11.5 L 206.8 11.5 L 206.8 11.5 Q 204.3 11 202.4 10 L 202.4 10 L 202.4 10 Q 200.5 8.9 199.4 7.2 L 199.4 7.2 L 199.4 7.2 Q 198.3 5.6 198.3 3.1 L 198.3 3.1 L 198.3 3.1 Q 198.3 0.7 199.2 -1.8 L 199.2 -1.8 L 199.2 -1.8 Q 200.1 -4.4 201.5 -7 L 201.5 -7 L 201.5 -7 Q 198.3 -9.3 196.6 -13.1 L 196.6 -13.1 L 196.6 -13.1 Q 194.8 -16.9 194.8 -21.9 L 194.8 -21.9 L 194.8 -21.9 Q 194.8 -26.4 196.3 -29.9 L 196.3 -29.9 L 196.3 -29.9 Q 197.7 -33.5 200.3 -35.9 L 200.3 -35.9 L 200.3 -35.9 Q 202.9 -38.4 206.5 -39.6 L 206.5 -39.6 L 206.5 -39.6 Q 210.2 -40.8 214.7 -40.8 L 214.7 -40.8 L 214.7 -40.8 Q 219 -40.8 222.5 -39.7 L 222.5 -39.7 Z M 214.7 -34.1 L 214.7 -34.1 L 214.7 -34.1 Q 211.7 -34.1 209.5 -33.2 L 209.5 -33.2 L 209.5 -33.2 Q 207.3 -32.3 205.9 -30.7 L 205.9 -30.7 L 205.9 -30.7 Q 204.6 -29.1 203.9 -26.8 L 203.9 -26.8 L 203.9 -26.8 Q 203.2 -24.6 203.2 -21.9 L 203.2 -21.9 L 203.2 -21.9 Q 203.2 -19.2 203.9 -17 L 203.9 -17 L 203.9 -17 Q 204.6 -14.7 206 -13.1 L 206 -13.1 L 206 -13.1 Q 207.4 -11.5 209.5 -10.6 L 209.5 -10.6 L 209.5 -10.6 Q 211.7 -9.7 214.7 -9.7 L 214.7 -9.7 L 214.7 -9.7 Q 217.7 -9.7 219.9 -10.6 L 219.9 -10.6 L 219.9 -10.6 Q 222.1 -11.5 223.5 -13.1 L 223.5 -13.1 L 223.5 -13.1 Q 224.9 -14.7 225.5 -17 L 225.5 -17 L 225.5 -17 Q 226.2 -19.2 226.2 -21.9 L 226.2 -21.9 L 226.2 -21.9 Q 226.2 -24.6 225.5 -26.8 L 225.5 -26.8 L 225.5 -26.8 Q 224.9 -29.1 223.5 -30.7 L 223.5 -30.7 L 223.5 -30.7 Q 222.1 -32.3 219.9 -33.2 L 219.9 -33.2 L 219.9 -33.2 Q 217.7 -34.1 214.7 -34.1 Z M 287.5 1.3 L 289.9 7.8 L 289.9 7.8 Q 284.6 9.9 279.8 10.8 L 279.8 10.8 L 279.8 10.8 Q 275.1 11.7 271.4 11.7 L 271.4 11.7 L 271.4 11.7 Q 265.7 11.7 261.4 9.9 L 261.4 9.9 L 261.4 9.9 Q 257.2 8.1 254.4 4.8 L 254.4 4.8 L 254.4 4.8 Q 251.5 1.5 250.1 -3 L 250.1 -3 L 250.1 -3 Q 248.7 -7.6 248.7 -13.1 L 248.7 -13.1 L 248.7 -13.1 Q 248.7 -16.5 249.2 -19.9 L 249.2 -19.9 L 249.2 -19.9 Q 249.7 -23.3 250.7 -26.3 L 250.7 -26.3 L 250.7 -26.3 Q 251.8 -29.4 253.5 -32.1 L 253.5 -32.1 L 253.5 -32.1 Q 255.2 -34.7 257.7 -36.6 L 257.7 -36.6 L 257.7 -36.6 Q 260.1 -38.6 263.4 -39.7 L 263.4 -39.7 L 263.4 -39.7 Q 266.7 -40.8 270.9 -40.8 L 270.9 -40.8 L 270.9 -40.8 Q 281.7 -40.8 287.2 -34.1 L 287.2 -34.1 L 287.2 -34.1 Q 292.6 -27.3 292.6 -14.7 L 292.6 -14.7 L 292.6 -12.1 L 257.2 -12.1 L 257.2 -12.1 Q 257.2 -8 258.1 -4.9 L 258.1 -4.9 L 258.1 -4.9 Q 259 -1.8 260.8 0.4 L 260.8 0.4 L 260.8 0.4 Q 262.6 2.5 265.4 3.6 L 265.4 3.6 L 265.4 3.6 Q 268.2 4.7 272 4.7 L 272 4.7 L 272 4.7 Q 274.1 4.7 276.2 4.4 L 276.2 4.4 L 276.2 4.4 Q 278.3 4.1 280.3 3.6 L 280.3 3.6 L 280.3 3.6 Q 282.3 3.1 284.1 2.5 L 284.1 2.5 L 284.1 2.5 Q 285.9 1.8 287.5 1.3 L 287.5 1.3 Z M 257.5 -18.8 L 284.3 -18.8 L 284.3 -18.8 Q 283.9 -26.6 280.5 -30.2 L 280.5 -30.2 L 280.5 -30.2 Q 277.2 -33.8 270.9 -33.8 L 270.9 -33.8 L 270.9 -33.8 Q 264.7 -33.8 261.4 -30.2 L 261.4 -30.2 L 261.4 -30.2 Q 258.2 -26.6 257.5 -18.8 L 257.5 -18.8 Z M 320.5 -40.8 L 320.5 -40.8 L 320.5 -40.8 Q 324.5 -40.8 328.5 -40 L 328.5 -40 L 328.5 -40 Q 332.5 -39.2 335.9 -37.7 L 335.9 -37.7 L 335.9 -37.7 Q 335.2 -36.2 334.5 -34.7 L 334.5 -34.7 L 334.5 -34.7 Q 333.8 -33.2 332.9 -31.7 L 332.9 -31.7 L 332.9 -31.7 Q 331.7 -32.2 330.2 -32.7 L 330.2 -32.7 L 330.2 -32.7 Q 328.7 -33.2 327.1 -33.5 L 327.1 -33.5 L 327.1 -33.5 Q 325.5 -33.8 323.8 -34.1 L 323.8 -34.1 L 323.8 -34.1 Q 322.1 -34.3 320.4 -34.3 L 320.4 -34.3 L 320.4 -34.3 Q 318.6 -34.3 317 -33.9 L 317 -33.9 L 317 -33.9 Q 315.3 -33.5 314 -32.7 L 314 -32.7 L 314 -32.7 Q 312.7 -31.9 312 -30.6 L 312 -30.6 L 312 -30.6 Q 311.2 -29.2 311.2 -27.3 L 311.2 -27.3 L 311.2 -27.3 Q 311.2 -25.2 312.1 -23.9 L 312.1 -23.9 L 312.1 -23.9 Q 312.9 -22.5 314.4 -21.6 L 314.4 -21.6 L 314.4 -21.6 Q 315.9 -20.6 317.9 -20 L 317.9 -20 L 317.9 -20 Q 319.9 -19.4 322.2 -18.9 L 322.2 -18.9 L 322.2 -18.9 Q 325.7 -18 328.8 -16.9 L 328.8 -16.9 L 328.8 -16.9 Q 331.8 -15.8 334.1 -14.1 L 334.1 -14.1 L 334.1 -14.1 Q 336.3 -12.3 337.5 -9.8 L 337.5 -9.8 L 337.5 -9.8 Q 338.8 -7.2 338.8 -3.4 L 338.8 -3.4 L 338.8 -3.4 Q 338.8 0.5 337.2 3.4 L 337.2 3.4 L 337.2 3.4 Q 335.6 6.2 333 8.1 L 333 8.1 L 333 8.1 Q 330.3 10 326.7 10.9 L 326.7 10.9 L 326.7 10.9 Q 323.1 11.7 319.1 11.7 L 319.1 11.7 L 319.1 11.7 Q 316.9 11.7 314.7 11.5 L 314.7 11.5 L 314.7 11.5 Q 312.4 11.2 310.2 10.7 L 310.2 10.7 L 310.2 10.7 Q 308 10.2 305.9 9.5 L 305.9 9.5 L 305.9 9.5 Q 303.8 8.7 301.9 7.9 L 301.9 7.9 L 301.9 7.9 Q 302.6 6.3 303.3 4.9 L 303.3 4.9 L 303.3 4.9 Q 304.1 3.4 304.9 1.9 L 304.9 1.9 L 304.9 1.9 Q 306.5 2.6 308.3 3.2 L 308.3 3.2 L 308.3 3.2 Q 310.1 3.8 312 4.3 L 312 4.3 L 312 4.3 Q 313.8 4.7 315.7 5 L 315.7 5 L 315.7 5 Q 317.5 5.2 319.2 5.2 L 319.2 5.2 L 319.2 5.2 Q 321.3 5.2 323.3 4.7 L 323.3 4.7 L 323.3 4.7 Q 325.4 4.3 326.9 3.2 L 326.9 3.2 L 326.9 3.2 Q 328.5 2.2 329.4 0.5 L 329.4 0.5 L 329.4 0.5 Q 330.4 -1.1 330.4 -3.4 L 330.4 -3.4 L 330.4 -3.4 Q 330.4 -5.6 329.5 -7 L 329.5 -7 L 329.5 -7 Q 328.6 -8.4 327.1 -9.4 L 327.1 -9.4 L 327.1 -9.4 Q 325.6 -10.3 323.6 -10.9 L 323.6 -10.9 L 323.6 -10.9 Q 321.6 -11.5 319.4 -12 L 319.4 -12 L 319.4 -12 Q 316 -12.9 313 -13.9 L 313 -13.9 L 313 -13.9 Q 309.9 -15 307.7 -16.7 L 307.7 -16.7 L 307.7 -16.7 Q 305.4 -18.4 304.1 -21 L 304.1 -21 L 304.1 -21 Q 302.8 -23.5 302.8 -27.3 L 302.8 -27.3 L 302.8 -27.3 Q 302.8 -30.8 304.2 -33.4 L 304.2 -33.4 L 304.2 -33.4 Q 305.7 -35.9 308.1 -37.6 L 308.1 -37.6 L 308.1 -37.6 Q 310.6 -39.2 313.8 -40 L 313.8 -40 L 313.8 -40 Q 317 -40.8 320.5 -40.8 Z M 425.3 1.2 L 427.6 8.6 L 427.6 8.6 Q 423.1 10 418.1 10.9 L 418.1 10.9 L 418.1 10.9 Q 413.1 11.7 407.1 11.7 L 407.1 11.7 L 407.1 11.7 Q 392.3 11.7 384.8 2.9 L 384.8 2.9 L 384.8 2.9 Q 377.2 -5.9 377.2 -23.2 L 377.2 -23.2 L 377.2 -23.2 Q 377.2 -41.4 384.8 -50.7 L 384.8 -50.7 L 384.8 -50.7 Q 392.3 -60 407.1 -60 L 407.1 -60 L 407.1 -60 Q 412.7 -60 417.2 -59 L 417.2 -59 L 417.2 -59 Q 421.6 -58.1 425.8 -56.5 L 425.8 -56.5 L 423.3 -49.4 L 423.3 -49.4 Q 421.3 -50.1 419.4 -50.7 L 419.4 -50.7 L 419.4 -50.7 Q 417.4 -51.2 415.5 -51.6 L 415.5 -51.6 L 415.5 -51.6 Q 413.5 -52 411.4 -52.2 L 411.4 -52.2 L 411.4 -52.2 Q 409.4 -52.4 407.1 -52.4 L 407.1 -52.4 L 407.1 -52.4 Q 401.7 -52.4 397.9 -50.5 L 397.9 -50.5 L 397.9 -50.5 Q 394 -48.6 391.5 -44.9 L 391.5 -44.9 L 391.5 -44.9 Q 389 -41.3 387.8 -36 L 387.8 -36 L 387.8 -36 Q 386.6 -30.8 386.6 -24.1 L 386.6 -24.1 L 386.6 -24.1 Q 386.6 -17.3 387.8 -12 L 387.8 -12 L 387.8 -12 Q 389 -6.7 391.5 -3.1 L 391.5 -3.1 L 391.5 -3.1 Q 394 0.5 397.9 2.3 L 397.9 2.3 L 397.9 2.3 Q 401.7 4.2 407.1 4.2 L 407.1 4.2 L 407.1 4.2 Q 412 4.2 416.5 3.3 L 416.5 3.3 L 416.5 3.3 Q 420.9 2.5 425.3 1.2 L 425.3 1.2 Z M 458.4 -40.8 L 458.4 -40.8 L 458.4 -40.8 Q 460.8 -40.8 463.3 -40.4 L 463.3 -40.4 L 463.3 -40.4 Q 465.9 -40.1 468.3 -39.1 L 468.3 -39.1 L 468.3 -39.1 Q 470.8 -38 473 -36.2 L 473 -36.2 L 473 -36.2 Q 475.2 -34.4 476.9 -31.5 L 476.9 -31.5 L 476.9 -31.5 Q 478.6 -28.5 479.6 -24.4 L 479.6 -24.4 L 479.6 -24.4 Q 480.5 -20.3 480.5 -14.6 L 480.5 -14.6 L 480.5 -14.6 Q 480.5 -8.8 479.6 -4.7 L 479.6 -4.7 L 479.6 -4.7 Q 478.6 -0.6 476.9 2.3 L 476.9 2.3 L 476.9 2.3 Q 475.2 5.3 473 7.1 L 473 7.1 L 473 7.1 Q 470.8 8.9 468.3 10 L 468.3 10 L 468.3 10 Q 465.9 11 463.3 11.4 L 463.3 11.4 L 463.3 11.4 Q 460.8 11.7 458.4 11.7 L 458.4 11.7 L 458.4 11.7 Q 456.1 11.7 453.5 11.4 L 453.5 11.4 L 453.5 11.4 Q 451 11 448.5 10 L 448.5 10 L 448.5 10 Q 446.1 8.9 443.9 7.1 L 443.9 7.1 L 443.9 7.1 Q 441.7 5.3 440 2.3 L 440 2.3 L 440 2.3 Q 438.3 -0.6 437.4 -4.7 L 437.4 -4.7 L 437.4 -4.7 Q 436.4 -8.8 436.4 -14.6 L 436.4 -14.6 L 436.4 -14.6 Q 436.4 -20.3 437.4 -24.4 L 437.4 -24.4 L 437.4 -24.4 Q 438.3 -28.5 440 -31.5 L 440 -31.5 L 440 -31.5 Q 441.7 -34.4 443.9 -36.2 L 443.9 -36.2 L 443.9 -36.2 Q 446.1 -38 448.5 -39.1 L 448.5 -39.1 L 448.5 -39.1 Q 451 -40.1 453.5 -40.4 L 453.5 -40.4 L 453.5 -40.4 Q 456 -40.8 458.4 -40.8 Z M 458.4 -34 L 458.4 -34 L 458.4 -34 Q 455.6 -34 453.2 -33.1 L 453.2 -33.1 L 453.2 -33.1 Q 450.7 -32.2 448.9 -30.1 L 448.9 -30.1 L 448.9 -30.1 Q 447 -27.8 445.9 -24.1 L 445.9 -24.1 L 445.9 -24.1 Q 444.8 -20.4 444.8 -14.6 L 444.8 -14.6 L 444.8 -14.6 Q 444.8 -8.8 445.9 -5 L 445.9 -5 L 445.9 -5 Q 447 -1.3 448.9 0.9 L 448.9 0.9 L 448.9 0.9 Q 450.7 3.1 453.2 4 L 453.2 4 L 453.2 4 Q 455.6 4.8 458.4 4.8 L 458.4 4.8 L 458.4 4.8 Q 461.2 4.8 463.7 4 L 463.7 4 L 463.7 4 Q 466.2 3.1 468.1 0.9 L 468.1 0.9 L 468.1 0.9 Q 469.9 -1.3 471 -5 L 471 -5 L 471 -5 Q 472.1 -8.8 472.1 -14.6 L 472.1 -14.6 L 472.1 -14.6 Q 472.1 -20.4 471 -24.1 L 471 -24.1 L 471 -24.1 Q 469.9 -27.8 468.1 -30.1 L 468.1 -30.1 L 468.1 -30.1 Q 466.2 -32.2 463.7 -33.1 L 463.7 -33.1 L 463.7 -33.1 Q 461.2 -34 458.4 -34 Z M 500.4 -58.9 L 500.4 -8.9 L 500.4 -8.9 Q 500.4 -5 500.5 -2.3 L 500.5 -2.3 L 500.5 -2.3 Q 500.6 0.4 500.8 2.4 L 500.8 2.4 L 500.8 2.4 Q 500.9 4.4 501.2 6.1 L 501.2 6.1 L 501.2 6.1 Q 501.6 7.7 502 9.7 L 502 9.7 L 502 9.7 Q 500 10.2 498 10.7 L 498 10.7 L 498 10.7 Q 495.9 11.2 493.9 11.5 L 493.9 11.5 L 493.9 11.5 Q 492.9 8.4 492.5 5.8 L 492.5 5.8 L 492.5 5.8 Q 492.1 3.1 492.1 0.6 L 492.1 0.6 L 492.1 -58.9 L 500.4 -58.9 Z M 523.4 -58.9 L 523.4 -8.9 L 523.4 -8.9 Q 523.4 -5 523.5 -2.3 L 523.5 -2.3 L 523.5 -2.3 Q 523.6 0.4 523.7 2.4 L 523.7 2.4 L 523.7 2.4 Q 523.9 4.4 524.2 6.1 L 524.2 6.1 L 524.2 6.1 Q 524.5 7.7 525 9.7 L 525 9.7 L 525 9.7 Q 523 10.2 520.9 10.7 L 520.9 10.7 L 520.9 10.7 Q 518.9 11.2 516.9 11.5 L 516.9 11.5 L 516.9 11.5 Q 515.9 8.4 515.5 5.8 L 515.5 5.8 L 515.5 5.8 Q 515.1 3.1 515.1 0.6 L 515.1 0.6 L 515.1 -58.9 L 523.4 -58.9 Z M 574.6 1.3 L 577 7.8 L 577 7.8 Q 571.6 9.9 566.9 10.8 L 566.9 10.8 L 566.9 10.8 Q 562.2 11.7 558.5 11.7 L 558.5 11.7 L 558.5 11.7 Q 552.8 11.7 548.5 9.9 L 548.5 9.9 L 548.5 9.9 Q 544.3 8.1 541.5 4.8 L 541.5 4.8 L 541.5 4.8 Q 538.6 1.5 537.2 -3 L 537.2 -3 L 537.2 -3 Q 535.8 -7.6 535.8 -13.1 L 535.8 -13.1 L 535.8 -13.1 Q 535.8 -16.5 536.3 -19.9 L 536.3 -19.9 L 536.3 -19.9 Q 536.7 -23.3 537.8 -26.3 L 537.8 -26.3 L 537.8 -26.3 Q 538.9 -29.4 540.6 -32.1 L 540.6 -32.1 L 540.6 -32.1 Q 542.3 -34.7 544.8 -36.6 L 544.8 -36.6 L 544.8 -36.6 Q 547.2 -38.6 550.5 -39.7 L 550.5 -39.7 L 550.5 -39.7 Q 553.8 -40.8 558 -40.8 L 558 -40.8 L 558 -40.8 Q 568.8 -40.8 574.3 -34.1 L 574.3 -34.1 L 574.3 -34.1 Q 579.7 -27.3 579.7 -14.7 L 579.7 -14.7 L 579.7 -12.1 L 544.3 -12.1 L 544.3 -12.1 Q 544.3 -8 545.2 -4.9 L 545.2 -4.9 L 545.2 -4.9 Q 546.1 -1.8 547.9 0.4 L 547.9 0.4 L 547.9 0.4 Q 549.7 2.5 552.5 3.6 L 552.5 3.6 L 552.5 3.6 Q 555.3 4.7 559.1 4.7 L 559.1 4.7 L 559.1 4.7 Q 561.2 4.7 563.3 4.4 L 563.3 4.4 L 563.3 4.4 Q 565.4 4.1 567.4 3.6 L 567.4 3.6 L 567.4 3.6 Q 569.4 3.1 571.2 2.5 L 571.2 2.5 L 571.2 2.5 Q 573 1.8 574.6 1.3 L 574.6 1.3 Z M 544.6 -18.8 L 571.4 -18.8 L 571.4 -18.8 Q 571 -26.6 567.6 -30.2 L 567.6 -30.2 L 567.6 -30.2 Q 564.2 -33.8 558 -33.8 L 558 -33.8 L 558 -33.8 Q 551.8 -33.8 548.5 -30.2 L 548.5 -30.2 L 548.5 -30.2 Q 545.3 -26.6 544.6 -18.8 L 544.6 -18.8 Z M 625.7 2 L 627.8 8.8 L 627.8 8.8 Q 624 10.1 619.8 10.9 L 619.8 10.9 L 619.8 10.9 Q 615.5 11.7 611.7 11.7 L 611.7 11.7 L 611.7 11.7 Q 605.9 11.7 601.6 10.1 L 601.6 10.1 L 601.6 10.1 Q 597.4 8.4 594.6 5.1 L 594.6 5.1 L 594.6 5.1 Q 591.8 1.9 590.4 -2.8 L 590.4 -2.8 L 590.4 -2.8 Q 589.1 -7.5 589.1 -13.6 L 589.1 -13.6 L 589.1 -13.6 Q 589.1 -20.2 590.8 -25.2 L 590.8 -25.2 L 590.8 -25.2 Q 592.4 -30.3 595.6 -33.8 L 595.6 -33.8 L 595.6 -33.8 Q 598.8 -37.2 603.3 -39 L 603.3 -39 L 603.3 -39 Q 607.9 -40.8 613.7 -40.8 L 613.7 -40.8 L 613.7 -40.8 Q 616.6 -40.8 619.7 -40.2 L 619.7 -40.2 L 619.7 -40.2 Q 622.7 -39.6 625.9 -38.7 L 625.9 -38.7 L 623.8 -31.9 L 623.8 -31.9 Q 621.3 -32.7 619.1 -33.2 L 619.1 -33.2 L 619.1 -33.2 Q 617 -33.7 614.6 -33.7 L 614.6 -33.7 L 614.6 -33.7 Q 606.4 -33.7 602 -28.9 L 602 -28.9 L 602 -28.9 Q 597.5 -24.2 597.5 -14.6 L 597.5 -14.6 L 597.5 -14.6 Q 597.5 -10.1 598.2 -6.5 L 598.2 -6.5 L 598.2 -6.5 Q 598.8 -3 600.5 -0.5 L 600.5 -0.5 L 600.5 -0.5 Q 602.1 2 605 3.3 L 605 3.3 L 605 3.3 Q 607.9 4.6 612.3 4.6 L 612.3 4.6 L 612.3 4.6 Q 615.2 4.6 618.6 3.9 L 618.6 3.9 L 618.6 3.9 Q 622 3.1 625.7 2 L 625.7 2 Z M 644.2 -39.7 L 644.2 -51.2 L 652.5 -51.2 L 652.5 -39.7 L 669.4 -39.7 L 669.4 -32.7 L 652.5 -32.7 L 652.5 -3.8 L 652.5 -3.8 Q 652.5 -0.9 652.6 0.6 L 652.6 0.6 L 652.6 0.6 Q 652.8 2.1 653.5 3 L 653.5 3 L 653.5 3 Q 654.7 4.7 658.6 4.7 L 658.6 4.7 L 658.6 4.7 Q 660.7 4.7 662.7 4.3 L 662.7 4.3 L 662.7 4.3 Q 664.7 3.9 666.4 3.3 L 666.4 3.3 L 666.4 3.3 Q 667.7 6.3 668.9 9.8 L 668.9 9.8 L 668.9 9.8 Q 663.2 11.7 657.4 11.7 L 657.4 11.7 L 657.4 11.7 Q 653.1 11.7 650.6 10.8 L 650.6 10.8 L 650.6 10.8 Q 648.1 9.9 646.6 7.7 L 646.6 7.7 L 646.6 7.7 Q 645.1 5.5 644.6 2.4 L 644.6 2.4 L 644.6 2.4 Q 644.2 -0.7 644.2 -6.1 L 644.2 -6.1 L 644.2 -32.7 L 636.9 -32.7 L 636.9 -39.7 L 644.2 -39.7 Z M 686.2 -59.2 L 686.2 -59.2 L 686.2 -59.2 Q 688.4 -59.2 690.1 -57.6 L 690.1 -57.6 L 690.1 -57.6 Q 691.7 -55.9 691.7 -53.7 L 691.7 -53.7 L 691.7 -53.7 Q 691.7 -51.3 690.1 -49.7 L 690.1 -49.7 L 690.1 -49.7 Q 688.4 -48.1 686.2 -48.1 L 686.2 -48.1 L 686.2 -48.1 Q 683.9 -48.1 682.2 -49.7 L 682.2 -49.7 L 682.2 -49.7 Q 680.6 -51.3 680.6 -53.7 L 680.6 -53.7 L 680.6 -53.7 Q 680.6 -56 682.2 -57.6 L 682.2 -57.6 L 682.2 -57.6 Q 683.9 -59.2 686.2 -59.2 Z M 682 10.6 L 682 -39.7 L 690.3 -39.7 L 690.3 10.6 L 682 10.6 Z M 726.3 -40.8 L 726.3 -40.8 L 726.3 -40.8 Q 728.7 -40.8 731.2 -40.4 L 731.2 -40.4 L 731.2 -40.4 Q 733.8 -40.1 736.2 -39.1 L 736.2 -39.1 L 736.2 -39.1 Q 738.7 -38 740.9 -36.2 L 740.9 -36.2 L 740.9 -36.2 Q 743.1 -34.4 744.8 -31.5 L 744.8 -31.5 L 744.8 -31.5 Q 746.5 -28.5 747.5 -24.4 L 747.5 -24.4 L 747.5 -24.4 Q 748.4 -20.3 748.4 -14.6 L 748.4 -14.6 L 748.4 -14.6 Q 748.4 -8.8 747.5 -4.7 L 747.5 -4.7 L 747.5 -4.7 Q 746.5 -0.6 744.8 2.3 L 744.8 2.3 L 744.8 2.3 Q 743.1 5.3 740.9 7.1 L 740.9 7.1 L 740.9 7.1 Q 738.7 8.9 736.2 10 L 736.2 10 L 736.2 10 Q 733.8 11 731.2 11.4 L 731.2 11.4 L 731.2 11.4 Q 728.7 11.7 726.3 11.7 L 726.3 11.7 L 726.3 11.7 Q 724 11.7 721.4 11.4 L 721.4 11.4 L 721.4 11.4 Q 718.9 11 716.4 10 L 716.4 10 L 716.4 10 Q 714 8.9 711.8 7.1 L 711.8 7.1 L 711.8 7.1 Q 709.6 5.3 707.9 2.3 L 707.9 2.3 L 707.9 2.3 Q 706.2 -0.6 705.3 -4.7 L 705.3 -4.7 L 705.3 -4.7 Q 704.3 -8.8 704.3 -14.6 L 704.3 -14.6 L 704.3 -14.6 Q 704.3 -20.3 705.3 -24.4 L 705.3 -24.4 L 705.3 -24.4 Q 706.2 -28.5 707.9 -31.5 L 707.9 -31.5 L 707.9 -31.5 Q 709.6 -34.4 711.8 -36.2 L 711.8 -36.2 L 711.8 -36.2 Q 714 -38 716.4 -39.1 L 716.4 -39.1 L 716.4 -39.1 Q 718.9 -40.1 721.4 -40.4 L 721.4 -40.4 L 721.4 -40.4 Q 723.9 -40.8 726.3 -40.8 Z M 726.3 -34 L 726.3 -34 L 726.3 -34 Q 723.5 -34 721.1 -33.1 L 721.1 -33.1 L 721.1 -33.1 Q 718.6 -32.2 716.8 -30.1 L 716.8 -30.1 L 716.8 -30.1 Q 714.9 -27.8 713.8 -24.1 L 713.8 -24.1 L 713.8 -24.1 Q 712.7 -20.4 712.7 -14.6 L 712.7 -14.6 L 712.7 -14.6 Q 712.7 -8.8 713.8 -5 L 713.8 -5 L 713.8 -5 Q 714.9 -1.3 716.8 0.9 L 716.8 0.9 L 716.8 0.9 Q 718.6 3.1 721.1 4 L 721.1 4 L 721.1 4 Q 723.5 4.8 726.3 4.8 L 726.3 4.8 L 726.3 4.8 Q 729.1 4.8 731.6 4 L 731.6 4 L 731.6 4 Q 734.1 3.1 736 0.9 L 736 0.9 L 736 0.9 Q 737.8 -1.3 738.9 -5 L 738.9 -5 L 738.9 -5 Q 740 -8.8 740 -14.6 L 740 -14.6 L 740 -14.6 Q 740 -20.4 738.9 -24.1 L 738.9 -24.1 L 738.9 -24.1 Q 737.8 -27.8 736 -30.1 L 736 -30.1 L 736 -30.1 Q 734.1 -32.2 731.6 -33.1 L 731.6 -33.1 L 731.6 -33.1 Q 729.1 -34 726.3 -34 Z M 759.8 -38.8 L 759.8 -38.8 L 767.8 -40.6 L 767.8 -40.6 Q 768.7 -37.7 769.1 -35 L 769.1 -35 L 769.1 -35 Q 769.3 -33.7 769.6 -29.8 L 769.6 -29.8 L 770.6 -29.8 L 770.6 -29.8 Q 773.3 -34.7 777.2 -37.6 L 777.2 -37.6 L 777.2 -37.6 Q 781.5 -40.8 786.3 -40.8 L 786.3 -40.8 L 786.3 -40.8 Q 793.5 -40.8 797.2 -37.3 L 797.2 -37.3 L 797.2 -37.3 Q 800.5 -34.4 801.7 -28.3 L 801.7 -28.3 L 801.7 -28.3 Q 802.6 -24.1 802.6 -15.9 L 802.6 -15.9 L 802.6 10.6 L 794.3 10.6 L 794.3 -18.2 L 794.3 -18.2 Q 794.3 -25.4 792.8 -28.5 L 792.8 -28.5 L 792.8 -28.5 Q 790.8 -33.1 784.5 -33.1 L 784.5 -33.1 L 784.5 -33.1 Q 780 -33.1 775.8 -28.9 L 775.8 -28.9 L 775.8 -28.9 Q 772.9 -26 769.7 -20.5 L 769.7 -20.5 L 769.7 10.6 L 761.4 10.6 L 761.4 -20.4 L 761.4 -20.4 Q 761.4 -26.9 761 -31.6 L 761 -31.6 L 761 -31.6 Q 760.8 -34.6 759.8 -38.8 Z" fill="#fd7124"></path></g></g><style>text {
  font-size: 64px;
  font-family: Arial Black;
  dominant-baseline: central;
  text-anchor: middle;
}</style></svg>